<svg width="267" height="32" viewBox="0 0 267 32" fill="none" xmlns="http://www.w3.org/2000/svg">
<path d="M0.012784 31V0.454545H11.4673C13.8139 0.454545 15.7827 0.862215 17.3736 1.67756C18.9744 2.4929 20.1825 3.63636 20.9979 5.10795C21.8232 6.5696 22.2358 8.27486 22.2358 10.2237C22.2358 12.1825 21.8182 13.8828 20.983 15.3246C20.1577 16.7564 18.9396 17.8651 17.3288 18.6506C15.718 19.4261 13.7393 19.8139 11.3928 19.8139H3.23438V15.2202H10.647C12.0192 15.2202 13.1428 15.0312 14.0178 14.6534C14.8928 14.2656 15.5391 13.7038 15.9567 12.968C16.3842 12.2223 16.598 11.3075 16.598 10.2237C16.598 9.13991 16.3842 8.2152 15.9567 7.44957C15.5291 6.67401 14.8778 6.08736 14.0028 5.68963C13.1278 5.28196 11.9993 5.07812 10.6172 5.07812H5.54617V31H0.012784ZM15.7926 17.1591L23.3544 31H17.1797L9.75213 17.1591H15.7926ZM36.9045 31.4474C34.6076 31.4474 32.6239 30.9702 30.9535 30.0156C29.293 29.0511 28.0153 27.6889 27.1204 25.929C26.2255 24.1591 25.7781 22.076 25.7781 19.6797C25.7781 17.3232 26.2255 15.255 27.1204 13.4751C28.0252 11.6854 29.288 10.2933 30.9087 9.299C32.5295 8.29474 34.4336 7.79261 36.6211 7.79261C38.033 7.79261 39.3654 8.02131 40.6183 8.47869C41.881 8.92614 42.9947 9.62216 43.9592 10.5668C44.9336 11.5114 45.6992 12.7145 46.256 14.1761C46.8129 15.6278 47.0913 17.358 47.0913 19.3665V21.022H28.3136V17.3828H41.9158C41.9059 16.3487 41.6822 15.429 41.2447 14.6236C40.8072 13.8082 40.1957 13.1669 39.4102 12.6996C38.6346 12.2322 37.7298 11.9986 36.6957 11.9986C35.592 11.9986 34.6225 12.267 33.7873 12.804C32.9521 13.331 32.3008 14.027 31.8335 14.892C31.3761 15.7472 31.1424 16.6868 31.1325 17.7109V20.8878C31.1325 22.2202 31.3761 23.3636 31.8633 24.3182C32.3505 25.2628 33.0316 25.9886 33.9066 26.4957C34.7816 26.9929 35.8058 27.2415 36.979 27.2415C37.7646 27.2415 38.4755 27.1321 39.1119 26.9134C39.7482 26.6847 40.3001 26.3516 40.7674 25.9141C41.2347 25.4766 41.5877 24.9347 41.8264 24.2884L46.8675 24.8551C46.5494 26.1875 45.9428 27.3509 45.0479 28.3452C44.163 29.3295 43.0295 30.0952 41.6474 30.642C40.2653 31.179 38.6843 31.4474 36.9045 31.4474ZM60.1603 31.4027C58.3606 31.4027 56.7498 30.9403 55.3279 30.0156C53.9061 29.0909 52.7825 27.7486 51.9572 25.9886C51.1319 24.2287 50.7193 22.0909 50.7193 19.5753C50.7193 17.0298 51.1369 14.8821 51.9721 13.1321C52.8173 11.3722 53.9558 10.0447 55.3876 9.14986C56.8194 8.24503 58.4153 7.79261 60.1752 7.79261C61.5176 7.79261 62.6213 8.02131 63.4863 8.47869C64.3514 8.92614 65.0375 9.46804 65.5446 10.1044C66.0517 10.7308 66.4444 11.3224 66.7228 11.8793H66.9466V0.454545H72.3606V31H67.051V27.3906H66.7228C66.4444 27.9474 66.0417 28.5391 65.5147 29.1655C64.9877 29.782 64.2917 30.3089 63.4267 30.7464C62.5616 31.1839 61.4728 31.4027 60.1603 31.4027ZM61.6667 26.973C62.8102 26.973 63.7846 26.6648 64.59 26.0483C65.3954 25.4219 66.0069 24.5518 66.4245 23.4382C66.8422 22.3246 67.051 21.027 67.051 19.5455C67.051 18.0639 66.8422 16.7763 66.4245 15.6825C66.0169 14.5888 65.4103 13.7386 64.6049 13.1321C63.8095 12.5256 62.8301 12.2223 61.6667 12.2223C60.4636 12.2223 59.4593 12.5355 58.6539 13.1619C57.8485 13.7884 57.242 14.6534 56.8343 15.7571C56.4267 16.8608 56.2228 18.1236 56.2228 19.5455C56.2228 20.9773 56.4267 22.255 56.8343 23.3786C57.252 24.4922 57.8635 25.3722 58.6689 26.0185C59.4842 26.6548 60.4835 26.973 61.6667 26.973ZM88.256 31.4474C85.9592 31.4474 83.9755 30.9702 82.305 30.0156C80.6445 29.0511 79.3668 27.6889 78.4719 25.929C77.5771 24.1591 77.1296 22.076 77.1296 19.6797C77.1296 17.3232 77.5771 15.255 78.4719 13.4751C79.3768 11.6854 80.6396 10.2933 82.2603 9.299C83.881 8.29474 85.7852 7.79261 87.9727 7.79261C89.3846 7.79261 90.717 8.02131 91.9698 8.47869C93.2326 8.92614 94.3462 9.62216 95.3107 10.5668C96.2852 11.5114 97.0508 12.7145 97.6076 14.1761C98.1644 15.6278 98.4428 17.358 98.4428 19.3665V21.022H79.6651V17.3828H93.2674C93.2575 16.3487 93.0337 15.429 92.5962 14.6236C92.1587 13.8082 91.5472 13.1669 90.7617 12.6996C89.9862 12.2322 89.0813 11.9986 88.0472 11.9986C86.9435 11.9986 85.9741 12.267 85.1388 12.804C84.3036 13.331 83.6523 14.027 83.185 14.892C82.7276 15.7472 82.494 16.6868 82.484 17.7109V20.8878C82.484 22.2202 82.7276 23.3636 83.2148 24.3182C83.7021 25.2628 84.3832 25.9886 85.2582 26.4957C86.1332 26.9929 87.1573 27.2415 88.3306 27.2415C89.1161 27.2415 89.8271 27.1321 90.4634 26.9134C91.0998 26.6847 91.6516 26.3516 92.119 25.9141C92.5863 25.4766 92.9393 24.9347 93.1779 24.2884L98.2191 24.8551C97.9009 26.1875 97.2944 27.3509 96.3995 28.3452C95.5146 29.3295 94.381 30.0952 92.9989 30.642C91.6168 31.179 90.0359 31.4474 88.256 31.4474Z" fill="black"/>
<path d="M103.249 0.454545H110.02L119.089 22.5881H119.447L128.515 0.454545H135.286V31H129.976V10.0149H129.693L121.251 30.9105H117.284L108.842 9.97017H108.559V31H103.249V0.454545ZM147.665 31.4624C146.214 31.4624 144.906 31.2038 143.743 30.6868C142.589 30.1598 141.675 29.3842 140.998 28.3601C140.332 27.3359 139.999 26.0732 139.999 24.5717C139.999 23.2791 140.238 22.2102 140.715 21.3651C141.192 20.5199 141.844 19.8438 142.669 19.3366C143.494 18.8295 144.424 18.4467 145.458 18.1882C146.502 17.9197 147.581 17.7259 148.694 17.6065C150.037 17.4673 151.126 17.343 151.961 17.2337C152.796 17.1143 153.403 16.9354 153.78 16.6967C154.168 16.4482 154.362 16.0653 154.362 15.5483V15.4588C154.362 14.3352 154.029 13.4652 153.363 12.8487C152.697 12.2322 151.737 11.924 150.484 11.924C149.162 11.924 148.113 12.2124 147.337 12.7891C146.572 13.3658 146.055 14.0469 145.786 14.8324L140.745 14.1165C141.143 12.7244 141.799 11.5611 142.714 10.6264C143.628 9.68182 144.747 8.97585 146.069 8.50852C147.392 8.03125 148.854 7.79261 150.454 7.79261C151.558 7.79261 152.657 7.92188 153.751 8.1804C154.844 8.43892 155.844 8.86648 156.748 9.46307C157.653 10.0497 158.379 10.8501 158.926 11.8643C159.483 12.8786 159.761 14.1463 159.761 15.6676V31H154.571V27.853H154.392C154.064 28.4893 153.601 29.0859 153.005 29.6428C152.418 30.1896 151.677 30.6321 150.782 30.9702C149.898 31.2983 148.858 31.4624 147.665 31.4624ZM149.067 27.495C150.151 27.495 151.091 27.2812 151.886 26.8537C152.682 26.4162 153.293 25.8395 153.721 25.1236C154.158 24.4077 154.377 23.6271 154.377 22.782V20.0824C154.208 20.2216 153.92 20.3509 153.512 20.4702C153.114 20.5895 152.667 20.6939 152.17 20.7834C151.672 20.8729 151.18 20.9524 150.693 21.022C150.206 21.0916 149.783 21.1513 149.425 21.201C148.62 21.3104 147.899 21.4893 147.263 21.7379C146.626 21.9865 146.124 22.3345 145.756 22.782C145.388 23.2195 145.204 23.7862 145.204 24.4822C145.204 25.4766 145.567 26.2273 146.293 26.7344C147.019 27.2415 147.944 27.495 149.067 27.495ZM176.63 8.09091V12.267H163.46V8.09091H176.63ZM166.711 2.60227H172.111V24.1094C172.111 24.8352 172.22 25.392 172.439 25.7798C172.667 26.1577 172.966 26.4162 173.334 26.5554C173.702 26.6946 174.109 26.7642 174.557 26.7642C174.895 26.7642 175.203 26.7393 175.481 26.6896C175.77 26.6399 175.988 26.5952 176.138 26.5554L177.047 30.7763C176.759 30.8757 176.346 30.9851 175.809 31.1044C175.282 31.2237 174.636 31.2933 173.871 31.3132C172.518 31.353 171.3 31.1491 170.216 30.7017C169.133 30.2443 168.273 29.5384 167.636 28.5838C167.01 27.6293 166.702 26.4361 166.711 25.0043V2.60227ZM191.041 31.4474C188.744 31.4474 186.761 30.9702 185.09 30.0156C183.43 29.0511 182.152 27.6889 181.257 25.929C180.362 24.1591 179.915 22.076 179.915 19.6797C179.915 17.3232 180.362 15.255 181.257 13.4751C182.162 11.6854 183.425 10.2933 185.045 9.299C186.666 8.29474 188.57 7.79261 190.758 7.79261C192.17 7.79261 193.502 8.02131 194.755 8.47869C196.018 8.92614 197.131 9.62216 198.096 10.5668C199.07 11.5114 199.836 12.7145 200.393 14.1761C200.95 15.6278 201.228 17.358 201.228 19.3665V21.022H182.45V17.3828H196.053C196.043 16.3487 195.819 15.429 195.381 14.6236C194.944 13.8082 194.332 13.1669 193.547 12.6996C192.771 12.2322 191.866 11.9986 190.832 11.9986C189.729 11.9986 188.759 12.267 187.924 12.804C187.089 13.331 186.438 14.027 185.97 14.892C185.513 15.7472 185.279 16.6868 185.269 17.7109V20.8878C185.269 22.2202 185.513 23.3636 186 24.3182C186.487 25.2628 187.168 25.9886 188.043 26.4957C188.918 26.9929 189.942 27.2415 191.116 27.2415C191.901 27.2415 192.612 27.1321 193.249 26.9134C193.885 26.6847 194.437 26.3516 194.904 25.9141C195.371 25.4766 195.724 24.9347 195.963 24.2884L201.004 24.8551C200.686 26.1875 200.08 27.3509 199.185 28.3452C198.3 29.3295 197.166 30.0952 195.784 30.642C194.402 31.179 192.821 31.4474 191.041 31.4474ZM205.796 31V8.09091H211.031V11.9091H211.269C211.687 10.5866 212.403 9.56747 213.417 8.85156C214.441 8.12571 215.61 7.76278 216.922 7.76278C217.22 7.76278 217.553 7.7777 217.921 7.80753C218.299 7.82741 218.612 7.86221 218.861 7.91193V12.8786C218.632 12.799 218.269 12.7294 217.772 12.6697C217.285 12.6001 216.813 12.5653 216.355 12.5653C215.371 12.5653 214.486 12.7791 213.7 13.2067C212.925 13.6243 212.313 14.206 211.866 14.9517C211.419 15.6974 211.195 16.5575 211.195 17.532V31H205.796ZM227.847 17.5767V31H222.448V8.09091H227.608V11.9837H227.877C228.404 10.701 229.244 9.68182 230.398 8.92614C231.561 8.17045 232.998 7.79261 234.708 7.79261C236.289 7.79261 237.666 8.13068 238.839 8.80682C240.023 9.48295 240.937 10.4624 241.584 11.745C242.24 13.0277 242.563 14.5838 242.553 16.4134V31H237.154V17.2486C237.154 15.7173 236.756 14.5192 235.961 13.6541C235.175 12.7891 234.086 12.3565 232.694 12.3565C231.75 12.3565 230.91 12.5653 230.174 12.983C229.448 13.3906 228.876 13.9822 228.459 14.7578C228.051 15.5334 227.847 16.473 227.847 17.5767ZM254.634 31.4624C253.182 31.4624 251.875 31.2038 250.711 30.6868C249.558 30.1598 248.643 29.3842 247.967 28.3601C247.301 27.3359 246.968 26.0732 246.968 24.5717C246.968 23.2791 247.206 22.2102 247.684 21.3651C248.161 20.5199 248.812 19.8438 249.638 19.3366C250.463 18.8295 251.393 18.4467 252.427 18.1882C253.471 17.9197 254.55 17.7259 255.663 17.6065C257.006 17.4673 258.094 17.343 258.93 17.2337C259.765 17.1143 260.371 16.9354 260.749 16.6967C261.137 16.4482 261.331 16.0653 261.331 15.5483V15.4588C261.331 14.3352 260.998 13.4652 260.331 12.8487C259.665 12.2322 258.706 11.924 257.453 11.924C256.131 11.924 255.081 12.2124 254.306 12.7891C253.54 13.3658 253.023 14.0469 252.755 14.8324L247.714 14.1165C248.111 12.7244 248.768 11.5611 249.682 10.6264C250.597 9.68182 251.716 8.97585 253.038 8.50852C254.361 8.03125 255.822 7.79261 257.423 7.79261C258.527 7.79261 259.626 7.92188 260.719 8.1804C261.813 8.43892 262.812 8.86648 263.717 9.46307C264.622 10.0497 265.348 10.8501 265.895 11.8643C266.452 12.8786 266.73 14.1463 266.73 15.6676V31H261.54V27.853H261.361C261.032 28.4893 260.57 29.0859 259.974 29.6428C259.387 30.1896 258.646 30.6321 257.751 30.9702C256.866 31.2983 255.827 31.4624 254.634 31.4624ZM256.036 27.495C257.12 27.495 258.059 27.2812 258.855 26.8537C259.65 26.4162 260.262 25.8395 260.689 25.1236C261.127 24.4077 261.346 23.6271 261.346 22.782V20.0824C261.177 20.2216 260.888 20.3509 260.481 20.4702C260.083 20.5895 259.635 20.6939 259.138 20.7834C258.641 20.8729 258.149 20.9524 257.662 21.022C257.175 21.0916 256.752 21.1513 256.394 21.201C255.589 21.3104 254.868 21.4893 254.231 21.7379C253.595 21.9865 253.093 22.3345 252.725 22.782C252.357 23.2195 252.173 23.7862 252.173 24.4822C252.173 25.4766 252.536 26.2273 253.262 26.7344C253.988 27.2415 254.912 27.495 256.036 27.495Z" fill="#B11B51"/>
</svg>
